<svg width="601" height="517" viewBox="0 0 601 517" fill="none" xmlns="http://www.w3.org/2000/svg">
<path fill-rule="evenodd" clip-rule="evenodd" d="M600.646 279.806V279.806L600.395 283.431L599.847 287.044L599.007 290.636L597.878 294.199L596.465 297.722L594.775 301.199L592.817 304.62L590.601 307.979L588.138 311.267L585.44 314.48L582.521 317.61L579.396 320.654L576.081 323.606L572.592 326.463L568.945 329.223L565.159 331.883L561.25 334.443L557.235 336.902L553.133 339.261L548.958 341.519L544.728 343.68L540.457 345.744L536.159 347.714L531.847 349.594L527.534 351.385L523.232 353.092L518.95 354.718L514.7 356.268L510.488 357.744L506.324 359.152L502.215 360.496L498.168 361.78L494.188 363.009L490.284 364.187L486.46 365.321L482.721 366.416L479.074 367.476L475.523 368.508L472.073 369.518L468.73 370.511L465.496 371.495L462.377 372.476L459.376 373.46L456.496 374.455L453.74 375.466L451.111 376.501L448.61 377.567L446.24 378.67L444.001 379.817L441.893 381.015L439.916 382.269L438.07 383.586L436.351 384.972L434.76 386.43L433.292 387.968L431.944 389.588L430.711 391.295L429.59 393.091L428.574 394.981L427.658 396.965L426.835 399.046L426.098 401.223L425.439 403.497L424.851 405.867L424.325 408.331L423.851 410.888L423.423 413.534L423.029 416.266L422.662 419.079L422.311 421.969L421.967 424.928L421.622 427.952L421.265 431.032L420.888 434.162L420.482 437.333L420.039 440.537L419.55 443.766L419.008 447.009L418.407 450.258L417.739 453.503L416.998 456.735L416.179 459.943L415.277 463.119L414.288 466.253L413.209 469.336L412.036 472.358L410.768 475.313L409.403 478.19L407.941 480.983L406.382 483.686L404.725 486.291L402.974 488.793L401.129 491.187L399.193 493.469L397.168 495.636L395.06 497.685L392.871 499.615L390.605 501.425L388.268 503.116L385.864 504.687L383.398 506.141L380.875 507.481L378.301 508.709L375.68 509.829L373.019 510.846L370.321 511.764L367.592 512.589L364.837 513.325L362.058 513.977L359.261 514.552L356.449 515.052L353.625 515.483L350.791 515.847L347.95 516.149L345.104 516.389L342.255 516.568L339.403 516.686L336.55 516.742L333.697 516.734L330.845 516.661L327.995 516.52L325.148 516.308L322.306 516.024L319.47 515.663L316.641 515.225L313.821 514.708L311.013 514.109L308.217 513.429L305.437 512.666L302.673 511.822L299.929 510.896L297.206 509.89L294.507 508.807L291.833 507.647L289.186 506.416L286.569 505.115L283.982 503.75L281.428 502.325L278.907 500.845L276.42 499.315L273.969 497.741L271.554 496.129L269.174 494.486L266.831 492.817L264.522 491.13L262.249 489.43L260.01 487.726L257.803 486.022L255.627 484.326L253.481 482.644L251.362 480.982L249.268 479.347L247.197 477.744L245.144 476.179L243.109 474.657L241.087 473.183L239.075 471.762L237.07 470.398L235.067 469.094L233.065 467.854L231.057 466.682L229.041 465.58L227.013 464.551L224.969 463.596L222.904 462.716L220.816 461.914L218.699 461.189L216.551 460.543L214.367 459.975L212.143 459.485L209.877 459.072L207.564 458.736L205.2 458.475L202.783 458.287L200.31 458.171L197.777 458.125L195.181 458.146L192.519 458.231L189.79 458.379L186.99 458.585L184.117 458.846L181.169 459.16L178.145 459.522L175.042 459.929L171.859 460.376L168.595 460.859L165.248 461.375L161.819 461.918L158.307 462.484L154.711 463.067L151.032 463.664L147.269 464.269L143.425 464.875L139.499 465.479L135.494 466.074L131.412 466.654L127.255 467.214L123.025 467.747L118.727 468.246L114.364 468.705L109.942 469.118L105.464 469.477L100.938 469.775L96.3709 470.004L91.7702 470.156L87.1461 470.222L82.5093 470.193L77.8722 470.058L73.2477 469.809L68.6502 469.436L64.0949 468.93L59.5976 468.281L55.1746 467.481L50.8425 466.522L46.618 465.399L42.5176 464.105L38.5578 462.636L34.7543 460.988L31.1226 459.16L27.6774 457.151L24.4323 454.96L21.4004 452.59L18.5934 450.042L16.0219 447.322L13.6954 444.433L11.6221 441.382L9.80853 438.176L8.26021 434.823L6.98099 431.331L5.97329 427.71L5.23805 423.971L4.7747 420.123L4.5812 416.178L4.65402 412.147L4.98819 408.042L5.57734 403.876L6.4137 399.659L7.48819 395.405L8.79049 391.124L10.309 386.83L12.0312 382.532L13.9432 378.242L16.0305 373.971L18.2774 369.728L20.6676 365.524L23.1841 361.367L25.8094 357.265L28.5253 353.226L31.3133 349.256L34.1548 345.361L37.0309 341.547L39.9226 337.817L42.8111 334.174L45.6777 330.621L48.5039 327.16L51.2716 323.791L53.9634 320.513L56.5623 317.326L59.0519 314.227L61.4166 311.213L63.6419 308.282L65.714 305.429L67.6202 302.648L69.3488 299.934L70.8894 297.282L72.2327 294.683L73.3707 292.132L74.2968 289.62L75.0056 287.14L75.4931 284.683L75.7568 282.241L75.7954 279.806L75.6092 277.369L75.1998 274.922L74.5702 272.457L73.7247 269.966L72.6691 267.44L71.4103 264.872L69.9564 262.255L68.3169 259.582L66.5023 256.847L64.5242 254.045L62.3949 251.17L60.128 248.219L57.7377 245.186L55.2388 242.07L52.6468 238.869L49.9778 235.579L47.2482 232.202L44.4747 228.737L41.6743 225.184L38.8639 221.546L36.0605 217.825L33.2806 214.024L30.5394 210.145L27.8512 206.194L25.2291 202.175L22.6847 198.09L20.2283 193.946L17.8703 189.747L15.621 185.499L13.4903 181.206L11.4881 176.877L9.62333 172.517L7.90454 168.132L6.33948 163.731L4.93509 159.32L3.69746 154.906L2.63178 150.496L1.74232 146.098L1.03243 141.718L0.504543 137.363L0.16018 133.039L0 128.753L0.0238179 124.51L0.230653 120.317L0.618775 116.177L1.18576 112.097L1.92855 108.08L2.84349 104.131L3.92644 100.252L5.17278 96.4484L6.57751 92.7217L8.13528 89.0745L9.84051 85.5089L11.6874 82.0267L13.6699 78.6291L15.7821 75.3172L18.0177 72.0918L20.3708 68.9534L22.8352 65.9021L25.4049 62.9381L28.0741 60.0612L30.8371 57.2711L33.6884 54.5675L36.6227 51.9499L39.6348 49.4176L42.7199 46.9703L45.8735 44.6074L49.0912 42.3282L52.3689 40.1324L55.7028 38.0196L59.0894 35.9895L62.5254 34.0419L66.0078 32.1768L69.5338 30.3943L73.1009 28.6947L76.7066 27.0783L80.3488 25.5458L84.0255 24.098L87.7348 22.7357L91.4752 21.46L95.2448 20.2723L99.0423 19.174L102.866 18.1664L106.715 17.2514L110.587 16.4306L114.482 15.7059L118.397 15.0791L122.331 14.5522L126.283 14.127L130.25 13.8055L134.232 13.5894L138.227 13.4804L142.231 13.4801L146.244 13.59L150.263 13.8112L154.285 14.1447L158.309 14.5913L162.33 15.1513L166.348 15.8249L170.357 16.6117L174.356 17.5111L178.342 18.522L182.31 19.6428L186.257 20.8718L190.181 22.2063L194.077 23.6436L197.943 25.1804L201.774 26.8129L205.568 28.5369L209.321 30.348L213.029 32.2411L216.691 34.2109L220.302 36.2504L223.86 38.351L227.36 40.5021L230.8 42.6917L234.176 44.9057L237.486 47.1294L240.728 49.3476L243.9 51.5452L247.001 53.7069L250.031 55.8176L252.991 57.8625L255.883 59.8267L258.708 61.6962L261.469 63.4572L264.169 65.0965L266.813 66.6016L269.404 67.9608L271.948 69.1632L274.451 70.1989L276.918 71.059L279.356 71.7355L281.773 72.2217L284.175 72.512L286.569 72.6021L288.964 72.4889L291.366 72.1706L293.785 71.6467L296.226 70.918L298.699 69.9868L301.211 68.8565L303.769 67.5319L306.379 66.0192L309.049 64.3257L311.785 62.4602L314.591 60.4323L317.474 58.2531L320.438 55.9347L323.486 53.4901L326.623 50.9333L329.849 48.2792L333.167 45.5435L336.577 42.7427L340.079 39.8937L343.673 37.0141L347.356 34.1217L351.126 31.2349L354.979 28.3721L358.91 25.5519L362.915 22.7927L366.987 20.1131L371.118 17.5312L375.301 15.0648L379.528 12.7314L383.789 10.5477L388.074 8.5299L392.373 6.6934L396.675 5.05269L400.968 3.62131L405.241 2.41177L409.482 1.43539L413.677 0.702307L417.816 0.221351L421.886 0L425.874 0.0443184L429.768 0.358911L433.558 0.946886L437.231 1.80982L440.778 2.94776L444.187 4.35918L447.45 6.04102L450.559 7.98868L453.504 10.1961L456.281 12.6556L458.883 15.3584L461.306 18.2941L463.546 21.451L465.603 24.8166L467.474 28.3769L469.161 32.1172L470.666 36.0219L471.992 40.0748L473.143 44.2592L474.125 48.5579L474.945 52.9538L475.61 57.4296L476.129 61.9683L476.511 66.5533L476.767 71.169L476.905 75.8001L476.937 80.4329L476.873 85.0544L476.723 89.652L476.499 94.2136L476.212 98.7278L475.875 103.184L475.5 107.573L475.098 111.885L474.682 116.113L474.263 120.248L473.855 124.285L473.47 128.218L473.119 132.042L472.815 135.752L472.569 139.345L472.395 142.818L472.302 146.169L472.303 149.398L472.409 152.503L472.629 155.485L472.973 158.345L473.452 161.085L474.073 163.708L474.844 166.218L475.773 168.618L476.865 170.913L478.126 173.109L479.561 175.212L481.172 177.229L482.961 179.167L484.93 181.034L487.078 182.838L489.404 184.588L491.906 186.292L494.579 187.96L497.42 189.602L500.421 191.226L503.575 192.842L506.874 194.46L510.307 196.088L513.865 197.737L517.536 199.415L521.305 201.13L525.161 202.892L529.087 204.707L533.068 206.583L537.089 208.527L541.132 210.544L545.18 212.641L549.216 214.822L553.22 217.09L557.175 219.45L561.062 221.902L564.862 224.45L568.559 227.093L572.132 229.831L575.564 232.664L578.839 235.589L581.939 238.604L584.848 241.704L587.551 244.887L590.034 248.147L592.283 251.477L594.285 254.873L596.031 258.326L597.509 261.829L598.712 265.375L599.631 268.954L600.263 272.558L600.602 276.179L600.646 279.806" fill="#FD6F00"/>
</svg>
